/* XPM */
static char *ca73fa10a8c542a6db7b0de517133152yt6gHZ1Rj5dESbBJ[] = {
/* columns rows colors chars-per-pixel */
"64 64 256 2 ",
"   c black",
".  c #0000A8",
"X  c #00A800",
"o  c #00A8A8",
"O  c #A80000",
"+  c #A800A8",
"@  c #A85400",
"#  c gray66",
"$  c gray33",
"%  c #5454FC",
"&  c #54FC54",
"*  c #54FCFC",
"=  c #FC5454",
"-  c #FC54FC",
";  c #FCFC54",
":  c gray99",
">  c #ECECEC",
",  c gainsboro",
"<  c #D0D0D0",
"1  c #C0C0C0",
"2  c #B4B4B4",
"3  c gray66",
"4  c #989898",
"5  c gray55",
"6  c #7C7C7C",
"7  c gray44",
"8  c #646464",
"9  c gray33",
"0  c #484848",
"q  c gray22",
"w  c #2C2C2C",
"e  c #202020",
"r  c #FC0000",
"t  c #EC0000",
"y  c #E00000",
"u  c #D40000",
"i  c #C80000",
"p  c #BC0000",
"a  c #B00000",
"s  c #A40000",
"d  c #980000",
"f  c #880000",
"g  c #7C0000",
"h  c #700000",
"j  c #640000",
"k  c #580000",
"l  c #4C0000",
"z  c #400000",
"x  c #FCD8D8",
"c  c #FCB8B8",
"v  c #FC9C9C",
"b  c #FC7C7C",
"n  c #FC5C5C",
"m  c #FC4040",
"M  c #FC2020",
"N  c #FC0000",
"B  c #FCA85C",
"V  c #FC9840",
"C  c #FC8820",
"Z  c #FC7800",
"A  c #E46C00",
"S  c #CC6000",
"D  c #B45400",
"F  c #9C4C00",
"G  c #FCFCD8",
"H  c #FCFCB8",
"J  c #FCFC9C",
"K  c #FCFC7C",
"L  c #FCF85C",
"P  c #FCF440",
"I  c #FCF420",
"U  c #FCF400",
"Y  c #E4D800",
"T  c #CCC400",
"R  c #B4AC00",
"E  c #9C9C00",
"W  c #848400",
"Q  c #706C00",
"!  c #585400",
"~  c #404000",
"^  c #D0FC5C",
"/  c #C4FC40",
"(  c #B4FC20",
")  c #A0FC00",
"_  c #90E400",
"`  c #80CC00",
"'  c #74B400",
"]  c #609C00",
"[  c #D8FCD8",
"{  c #BCFCB8",
"}  c #9CFC9C",
"|  c #80FC7C",
" . c #60FC5C",
".. c #40FC40",
"X. c #20FC20",
"o. c #00FC00",
"O. c #00FC00",
"+. c #00EC00",
"@. c #00E000",
"#. c #00D400",
"$. c #04C800",
"%. c #04BC00",
"&. c #04B000",
"*. c #04A400",
"=. c #049800",
"-. c #048800",
";. c #047C00",
":. c #047000",
">. c #046400",
",. c #045800",
"<. c #044C00",
"1. c #044000",
"2. c #D8FCFC",
"3. c #B8FCFC",
"4. c #9CFCFC",
"5. c #7CFCF8",
"6. c #5CFCFC",
"7. c #40FCFC",
"8. c #20FCFC",
"9. c #00FCFC",
"0. c #00E4E4",
"q. c #00CCCC",
"w. c #00B4B4",
"e. c #009C9C",
"r. c #008484",
"t. c #007070",
"y. c #005858",
"u. c #004040",
"i. c #5CBCFC",
"p. c #40B0FC",
"a. c #20A8FC",
"s. c #009CFC",
"d. c #008CE4",
"f. c #007CCC",
"g. c #006CB4",
"h. c #005C9C",
"j. c #D8D8FC",
"k. c #B8BCFC",
"l. c #9C9CFC",
"z. c #7C80FC",
"x. c #5C60FC",
"c. c #4040FC",
"v. c #2024FC",
"b. c #0004FC",
"n. c #0000FC",
"m. c #0000EC",
"M. c #0000E0",
"N. c #0000D4",
"B. c #0000C8",
"V. c #0000BC",
"C. c #0000B0",
"Z. c #0000A4",
"A. c #000098",
"S. c #000088",
"D. c #00007C",
"F. c #000070",
"G. c #000064",
"H. c #000058",
"J. c #00004C",
"K. c #000040",
"L. c #282828",
"P. c #FCE034",
"I. c #FCD424",
"U. c #FCCC18",
"Y. c #FCC008",
"T. c #FCB400",
"R. c #B420FC",
"E. c #A800FC",
"W. c #9800E4",
"Q. c #8000CC",
"!. c #7400B4",
"~. c #60009C",
"^. c #500084",
"/. c #440070",
"(. c #340058",
"). c #280040",
"_. c #FCD8FC",
"`. c #FCB8FC",
"'. c #FC9CFC",
"]. c #FC7CFC",
"[. c #FC5CFC",
"{. c #FC40FC",
"}. c #FC20FC",
"|. c #FC00FC",
" X c #E000E4",
".X c #C800CC",
"XX c #B400B4",
"oX c #9C009C",
"OX c #840084",
"+X c #6C0070",
"@X c #580058",
"#X c #400040",
"$X c #FCE8DC",
"%X c #FCE0D0",
"&X c #FCD8C4",
"*X c #FCD4BC",
"=X c #FCCCB0",
"-X c #FCC4A4",
";X c #FCBC9C",
":X c #FCB890",
">X c #FCB080",
",X c #FCA470",
"<X c #FC9C60",
"1X c #F0945C",
"2X c #E88C58",
"3X c #DC8854",
"4X c #D08050",
"5X c #C87C4C",
"6X c #BC7848",
"7X c #B47044",
"8X c #A86840",
"9X c #A0643C",
"0X c #9C6038",
"qX c #905C34",
"wX c #885830",
"eX c #80502C",
"rX c #744C28",
"tX c #6C4824",
"yX c #5C4020",
"uX c #543C1C",
"iX c #483818",
"pX c #403018",
"aX c #382C14",
"sX c #28200C",
"dX c #600064",
"fX c #006464",
"gX c #006060",
"hX c #00001C",
"jX c #00002C",
"kX c #302410",
"lX c #480048",
"zX c #500050",
"xX c #000034",
"cX c gray11",
"vX c #4C4C4C",
"bX c gray36",
"nX c gray25",
"mX c gray19",
"MX c #343434",
"NX c #D8F4F4",
"BX c #B8E8E8",
"VX c #9CDCDC",
"CX c #74C8C8",
"ZX c #48C0C0",
"AX c #20B4B4",
"SX c #20B0B0",
"DX c #00A4A4",
"FX c #009898",
"GX c #008C8C",
"HX c #008484",
"JX c #007C7C",
"KX c #007878",
"LX c #007474",
"PX c #007070",
"IX c #006C6C",
"UX c #980088",
/* pixels */
"7 $ $ $ 8 6 5 8 6 6 5 4 6 5 # 4 5 4 # # 2 > : < %X< > > =X, : , 1 < > > : > : < 2 $ 8 4 < v 4 6XM p h h h j h j h h h d M d tXmX",
"bX8 $ 8 7 $ 8 6 4 5 6 4 5 # 6 4 6 6 8 # 2 : : , x 2 1 2 # x 1 , , < > > > > > < 2 $ 4 # < 1 v 6 wXd 6 h d d d M h h h h d uXvXq ",
"$ $ bX6 4 $ 8 6 4 5 # 4 # 2 4 6 6 6 8 2 < , > 1 # c 2 # 3Xv 2 v 1 # > > 2 > < < 4 $ # 4 2 ;X2 5 tXh d j 6 d h M tXh d d h tXnXq ",
"nX$ $ 8 8 8 4 8 5 6 6 6 6 # 4 6 8 8 $ 6 1 1 1 4 6X6X6X4 6Xm 6X5 6 4 *X2 2 # # 2 7 $ 4 4 # 5 6 8 tX6 j h j j uXrXwXM d d h uXnXq ",
"bX$ bXbX$ 6 2 5 4 # 2 4 4 # # 4 6 8 7 4 # 2 b m M eXeXtXM uXtXeX8 8 4 2 4 4 # 4 4 nX8 6 5 8 8 6 6 rXd d d d tX6 6 wXh h j uXq q ",
"nXnXnXq bX6 6 6 6 6 6 6 6 2 4 8 # 2 4 8 6 n eXuXyXyX4 yXuXuXuXeX8 4 4 4 4 7 $ bX6 $ 8 2 6 5 6 6 qXM M d O 6 6 6 5 6 M h j uXpXmX",
"$ 8 8 q nX8 7 6 4 # 2 2 > : > > > < , 4 5 m M h h d h 4 j h uXvXbX7 8 8 7 bX$ $ $ 8 7 2 # 4 4 # 6X9X9Xd h h 9X4 5 6 tXh h d j uX",
"6 4 6 nX8 < < *X> > > > > > < # 2 1 # 6 9XM M 4 l j h z l h pXeXvX8 8 8 8 $ $ $ $ $ $ 4 4 # 2 1 5 6 qXd h h 6 6 6 8 nX8 8 d h d ",
"6 6 7 q : > > %X> < 2 2 < < < 2 , < 4 # m M M j h l l h z z z nXvX$ 8 8 7 8 $ $ $ $ $ 6 4 # # 2 4 6 9XeXh rX4 4 6 8 8 j bXbXj d ",
"7 6 6 nX> > : > < : : 2 > : : > , # # # M 4 M h l j j 4 l j z 8 bX$ $ 8 7 8 8 8 $ $ bX4 6 4 6 6 6 7 4 n M eX5 4 8 6 7 vX8 bXh j ",
"8 8 6 nX> > : < *X*X2 < 2 > *X=X2 6X# # # d d j z l 4 l l h 8 4 vX$ $ 7 6 6 8 7 8 bXnX6 8 8 8 8 8 4 # 3X6 eX5 6 6 8 8 8 eXj j j ",
"8 7 8 nX< > 4 5 : < 5 # # 2 # 4 # # # # # j j j z z 4 l h l 4 nXbX8 bX7 4 4 7 6 8 $ nX6 7 6 6 8 # 4 # # 5 bX7 6 6 6 6 6 bXuXh h ",
"$ 4 4 nX2 *X# q 2 2 2 4 # # 1 4 M # # # # # h h l l l j 8 4 4 nX6 6 6 7 2 4 2 7 8 nXnX$ 8 4 6 4 2 4 # # # 4X8 6 4 5 6 8 6 bXuXh ",
"4 4 4 nX# 2 < bX6 < 2 # # 2 5 M M # # # d O d h h h 8 8 4 4 2 eX4 4 4 2 < 2 < 2 4 nXnX$ 7 7 6 4 6 # 6 7 6 4 4 # # 6 8 $ 8 7 bXj ",
"8 7 8 q < # 2 $ $ 2 # 4 # 5 9XrXd h # O M O d j d d 8 4 2 2 2 8 8 6 2 > < 2 4 4 8 bXnX$ 8 6 4 # 4 4 4 8 6 # 2 4 4 6 8 8 6 4 6 vX",
"8 8 8 bX2 2 2 q nX# 6 2 6 # M O h d d d O h 4 O h O 4 4 2 8 8 2 5 6 4 2 < < 2 # 6 nXnXbX7 7 # # 4 2 7 6 2 # # 6 6 8 6 # 2 4 # 8 ",
"$ 8 8 nX6 2 2 nXq 1 3X6 eXd d d h h h p O d d h d O 2 4 2 2 2 2 2 2 > < # 2 2 2 2 $ nXnX6 7 7 # 4 6 8 4 # 4 2 8 8 # 4 2 4 2 2 6 ",
"$ 8 bXq 4 4 # q w 4X9X# h d h h h h h O p d d h h O d d 4 4 8 2 5 # > < 2 2 2 2 < 7 $ bX6 7 7 8 6 7 6 6 7 4 6 6 5 # 4 2 # 2 4 8 ",
"4 8 q q 6 5 5 q eXtXd h h d h h h h h h h h j h 4 j O O 8 8 4 2 8 1 *X< *X< *X< < 6 $ $ 4 7 8 7 7 8 6 5 6 4 6 4 4 6 2 4 # 2 4 4 ",
"8 8 q 8 8 8 q kXkX# h d bXbXh h l d d h j l j l p O 4 O M 8 8 4 n < > > > < > > *X8 bXnX6 6 7 7 7 $ 6 8 4 6 4 # 4 # 2 6 4 4 6 6 ",
"m vXiX# kXiXkXz z d h $ bX8 8 bXh h d d h d l z M M p 4 M M p 4 4 x > > < < 2 8 $ bXq nX4 4 7 4 7 bX$ 8 7 6 6 6 4 # # 8 4 6 6 $ ",
"M j l z z z z z z z 8 8 bX8 8 $ h h j d j h l z j M M O h d d d h 6 6 5 8 8 8 8 $ bXnXq 6 7 8 $ $ nX$ 6 $ 8 6 8 8 6 # 5 # 4 8 bX",
"h z l z z z z # z $ $ bXbX8 bXbXl z $ l l z l z l l h l l z l z l iXvX8 8 8 8 8 $ $ 8 8 $ bX$ 8 $ nX$ $ 8 $ 8 8 8 bX$ 6 8 4 8 nX",
"l l z l l # nXbX$ nXbX8 8 8 $ $ bXnX$ $ $ z l z h 4 z z h h l h h kX8 6 8 4 4 8 bX8 7 2 4 8 7 6 8 8 $ 7 $ 8 8 8 8 8 8 6 8 4 4 6 ",
"l h h z l $ 7 8 $ $ 8 6 8 4 # 6 8 nX8 $ $ j pXtXpX4 j l h j j j j h eX6 4 6 4 7 $ $ bX# < 4 4 4 6 8 7 8 bX8 8 4 5 6 # 4 # 2 4 2 ",
"h h d h 4 $ 4 2 6 4 2 2 4 2 2 2 2 $ 7 uX$ $ eXqXuXuXh 4 j h h j l j uXvX6 7 8 7 8 $ 4 2 # 2 < 4 4 4 6 4 6 6 6 2 # 2 # 2 # 2 < 4 ",
"h h O 4 4 4 2 2 2 4 2 < 4 < < 2 2 7 7 vXq vXbX6 8 vXpXj h 4 d j h l pXnX8 bX8 8 7 bX2 > < < < 2 4 6 6 4 # 4 2 4 4 2 2 2 < > < 4 ",
"j O O 4 4 < 2 2 2 2 4 < < 2 4 < 2 4 7 bX8 8 8 6 8 bXtXj j h h h j h h q 8 8 bX$ $ 8 4 < 2 2 2 4 2 7 8 4 4 2 4 4 6 4 2 # 2 < 2 4 ",
"j h d $ 4 2 2 2 4 4 2 # 2 2 2 2 < 4 bXbX8 bX6 6 8 8 vXuXj j j l j h z 6 8 6 8 $ bX$ 8 # 4 4 2 4 4 4 2 4 # 2 4 6 2 2 2 2 4 < < 6 ",
"q vXqX$ 4 2 2 4 7 7 6 2 < < 2 4 # 4 8 8 bXvX8 8 8 6 bXnXuXh j j j j 6 h 6 6 7 8 nX$ $ 6 4 # 4 2 4 4 1 2 2 2 2 4 < < < < < < < 7 ",
"vX5 # 4 4 # 6 6 $ $ 8 4 # < # 6 7 6 7 8 8 $ 8 6 8 4 6 eXtXh 4 j j 6 j j 8 7 7 7 8 bX7 7 # 4 # 4 2 4 4 4 4 7 4 4 # 4 2 4 4 4 4 7 ",
"$ 6 2 # 1 # 4 # 4 8 vX8 4 4 # 4 6 $ 6 eXnXvXbX8 bX5 8 8 vX4 4 h 6 h 6 6 8 bX4 6 8 bX6 6 4 4 4 4 6 4 5 5 8 8 8 8 4 6 6 4 2 4 6 4 ",
"bX6 6 2 < < 4 4 # 6 4 2 4 # 4 4 8 bX8 tXq q $ wX6X6 4 8 6 tXj h 6 6 j 8 8 M 6 7 8 $ 4 6 4 7 4 # 4 4 4 6 eXvXbX8 8 # 4 6 2 4 2 4 ",
"8 2 4 4 2 2 4 2 4 # 2 4 # 4 7 6 8 vXeXkXkXkXj $ tXvX8 8 8 nXj j j l 8 8 j 8 8 8 $ $ 8 6 4 8 4 6 7 6 8 8 vXtXtXvXbXbX6 5 4 6 4 8 ",
"bX$ bX$ $ 8 $ $ bX$ vXvXvXvXuX8 iXpXz $ z l z z uXuXvX8 vXeXuXj j j 8 8 8 $ $ 8 $ $ $ 8 8 8 8 6 8 8 7 8 nXkXkXj j uXuXvXbX6 8 q ",
"$ $ $ bXbXnXnXnXbXq w mXw w kX8 $ 8 4 4 $ l h h h $ eX6 4 5 qXh h d d d h $ $ $ vX$ bXbX$ $ $ 8 bX$ bXvXnXq pXz z j j h tXuXkXkX",
"$ 8 8 6 7 4 7 7 8 vXtXuXl j w h 8 h 4 # 4 $ l j h l $ bX8 8 $ uXl h h O d $ d vXnXvXnX$ $ $ 8 $ 6 $ 8 4 5 bX4 4 h h j h j j z z ",
"bX7 4 2 4 4 2 4 5 8 eXuXh j h $ 8 h 4 # # $ j j l h l pX$ vXvXq z z h l l z vX7 7 7 7 4 4 7 6 $ 7 6 4 4 4 4 vXtX4 j h j j j z z ",
"6 6 7 6 4 # 4 # 6 tXj $ $ d h j j 4 4 4 # $ j l h $ z z tX8 vXnXkXz l z h z vX6 4 4 6 7 7 $ bX7 7 4 4 4 7 4 8 tX4 4 h 4 h d z z ",
"$ 7 8 4 4 2 # 4 4 qXyX$ $ h d d 4 # 4 4 # $ $ l l h h l pX$ $ vXeXkXz z l vX6 4 6 4 $ 7 7 7 4 7 6 6 4 7 7 4 8 tXeXj 4 h j l z z ",
"4 4 7 4 2 2 4 4 # 4 9XeXrXuXtX4 # # # # 4 vXtX$ tX$ $ j h tX8 8 8 tXj l 6 vXvX4 6 6 4 8 bX6 # 6 4 7 4 6 4 4 5 8 4 h 4 j l l z 6 ",
"7 6 6 4 < 4 4 4 4 x # # 4 4 4 # # # # 6 4 4 4X5 6 eXd h h tX7 5 4 6 q h j h 4 6 vXvXj eX4 4 2 4 4 6 4 4 4 4 4 6 4 tX4 l h 8 6 z ",
"$ 2 4 4 2 4 # 4 7 # 1 2 2 2 2 # # 4 1 4 4 6 4 7 6 6 $ $ d rX6 6 # 4 9Xh h d d 6 4 l j h 6 4 4 2 4 6 4 4 6 4 # 5 8 wX4 h 6 z 6 6 ",
"nX2 4 2 4 7 4 4 2 6 < > , 2 2 2 # 4 4 4 4 2 # # # 6 $ M h M eX# 4 6 4 vXd d d l l h l # 6 5 4 4 6 6 6 4 2 4 2 4 6 8 uX8 8 6 6 6 ",
"$ 2 < 8 4 4 2 4 4 4 4 < < > < < < < 4 6 4 # < 2 1 # 8 rXO M M 4 2 < < 5 < M d h z h h j 6 eX5 7 6 4 6 # 2 4 7 6 4 8 uX8 l 6 z z ",
"8 4 < < 4 2 2 2 4 2 2 > < < < : : > 2 7 4 2 < < < 1 5 M M O M 4 , 2 < # < < 2 2 h h l l h d 6 4 4 6 4 4 4 4 4 7 7 8 eX8 8 6 z z ",
"8 2 4 < 2 < 2 # 2 < < < > < < 2 > < < < < # 2 # 1 , 2 9XM O M 9X2 < < < 2 < 2 O d h h l 6 h tX6 4 6 4 4 4 2 4 4 4 7 8 6 6 j z z ",
"# 2 4 4 < 2 2 < < > > > < > < 2 2 4 # 1 # # # 4 2 1 2 9XM M M M # , < < , < < uXd j h l 6 h 6 7 6 6 4 6 4 7 4 # 4 6 $ 6 6 uXz z ",
"4 # 4 4 4 2 2 < > > : > : > %X, # # 5 6 4 6 5 6X4 b 6Xm M O O M # , > < , 1 < uXuX2 h j 6 l 6 7 bX8 4 4 6 7 6 6 6 6 4 $ 8 6 z z ",
"6 8 6 2 < 2 4 2 < 2 < 2 # 4 4 8 6 8 8 qX9XtXtXtXM # M M M O O M 6X2 < < < < < < d d h j h j h 6 7 6 6 # 6 6 6 6 6 4 6 bX7 8 w z ",
"4 6 4 5 # 4 4 4 4 7 $ 8 8 $ tXuXrXpXpXh 4 d j j d M # M O O M # 9X2 # < 2 1 4 < h d 2 h j j j 6 6 7 8 4 4 6 6 4 6 6 7 6 8 7 q mX",
"4 6 6 6 4 7 8 7 8 6 8 $ $ yXpX$ l h j 4 d d j d h h M M O O # M 6X< < < 2 2 5 vX< h 2 l j h z h 7 7 7 7 6 4 6 7 4 6 6 4 # 4 nXvX",
"6 4 6 6 2 < # # 2 4 6 bXuXj $ $ j d d d 4 j j M h h O # d d d M 5 2 1 # # 4 # 6 2 j h l l j h l 7 7 7 8 7 6 4 7 4 # 2 < < 2 bX$ ",
"bX2 < *X2 2 2 < # 5 bX$ $ h $ d h j j h 4 z l z z z z j uX# uXtXeXvX$ bXbXbX$ vXkX< vXvXvXh j l h j 7 7 6 4 4 6 # 2 < < > < $ $ ",
"q nX8 8 5 8 8 8 8 vXkXz z z l l l l kXpXz pXkXtXkXiXq w w w nXnXq nX$ $ $ $ bXq vXq vXvXvXh h j j h 7 7 eX4 2 < 2 < 4 2 2 # nXnX",
"q q q nXq q nXq q mXz l z vXl z kXw kXkXeX3X4 4 # 4 5 5 # 4 4 # 4 6 8 8 8 8 $ vXkXz vXl q q l z q q 4 4 4 4 7 4 6 6 8 $ nXbX$ 8 ",
"q nX$ bX$ $ $ $ q nXkXz z vXz vXq nX8 q 4 4 8 4 # 4 4 4 6 4 7 4 8 2 7 7 6 6 4 4 mXiXh j h q q q 4 l h 4 5 5 8 vX8 8 7 nX8 8 6 5 ",
"nX$ $ $ 8 $ 8 $ vXnXq vXvXvXkXq nXvX$ bX7 7 6 6 2 4 6 4 7 4 8 7 4 2 4 7 6 6 4 # 8 tXh j M d h h h pX5 yXuX5 bX6 4 4 4 $ 7 4 8 7 ",
"$ bX$ 8 $ $ $ $ $ vXnXq uXpXuXnXvX$ 8 bX4 4 6 4 2 2 4 # 4 4 4 7 4 4 7 8 8 6 # # 6 tXj j O h h d d h 5 5 5 4 3X1 # 4 < $ bX6 7 8 ",
"bX$ $ $ $ $ $ $ bX$ 8 nXnXnXvXvX$ $ $ nX4 7 2 4 7 2 2 2 2 4 4 7 6 2 4 4 # 4 2 # bXuXd d # O M O d O 5 5 b 2 # # 6 2 4 8 7 4 6 $ ",
"$ bX$ $ 8 $ $ $ $ $ $ vXbXvXvX$ bX8 $ nX8 4 4 4 2 2 < 2 # 4 2 < 2 < < < < 4 1 < 8 pXh # M M M y O M h wX5 5 4 2 4 4 4 6 7 6 # $ ",
"8 7 8 8 8 6 4 7 8 bX4 4 8 6 4 4 6 7 7 $ 2 2 4 2 < > %X: : *X> < 2 2 4 # 2 4 # # tXj # # # h O h d d h M 6 # 4 4 4 4 2 8 8 7 4 nX",
"6 4 4 6 < 4 2 4 4 4 6 4 6 6 7 4 4 4 4 8 < 2 4 < 2 2 < *X< < > < 2 < 2 # 2 2 4 3XeX# h j j j h l h j h tX5 # 2 < > < 2 6 7 2 2 nX",
"2 4 5 2 2 # 2 2 7 6 6 8 7 4 4 # 4 4 6 8 < < < < 2 < 2 < 2 *X< *X< 2 2 < 2 < 4 4 eXz z # l z z l h h h uX5 1 4 > < < # 6 4 *X> bX"
};
