/* XPM */
static char *_517f18fba314faef7fcbd76a186f90di0wUIATFaHcpRGep[] = {
/* columns rows colors chars-per-pixel */
"64 64 45 1 ",
"  c black",
". c #1B1B1B",
"X c #281F0B",
"o c #382C14",
"O c #202020",
"+ c #282828",
"@ c #2C2C2C",
"# c gray19",
"$ c #343434",
"% c #373737",
"& c #473818",
"* c #543C1D",
"= c #5C401F",
"- c #6C4824",
"; c #744C28",
": c gray25",
"> c #484848",
", c gray33",
"< c #646464",
"1 c #BC1900",
"2 c #D41D00",
"3 c #EC2200",
"4 c #80502C",
"5 c #885830",
"6 c #905C35",
"7 c #9C6038",
"8 c #A0643C",
"9 c #A86840",
"0 c #B47044",
"q c #BC7848",
"w c #C87C4C",
"e c #D08050",
"r c #DC8854",
"t c #E88C58",
"y c #F0945C",
"u c #FC9C60",
"i c #FCA470",
"p c #0432FC",
"a c #981F88",
"s c #FCB080",
"d c #FCBC9C",
"f c #C0C0C0",
"g c #D0D0D0",
"h c gainsboro",
"j c gray99",
/* pixels */
"aaaaaaaaaaaaaaaaaaaaaaaaaaaaaaaaaaaaaaaaaaaaaaaaaaaaaaaaaaaaaaaa",
"aaaaaaaaaaaaaaaaaaaaaaaaaaaaaaaaaaaaaaaaaaaaaaaaaaaaaaaaaaaaaaaa",
"aaaaaaaaaaaaaaaaaaaaaaaaaaaaaaaaaaaaaaaaaaaaaaaaaaaaaaaaaaaaaaaa",
"aaaaaaaaaaaaaaaaaaaaaaaaaaaaaaaaaaaaaaaaaaaaaaaaaaaaaaaaaaaaaaaa",
"aaaaaaaaaaaaaaaaaaaaaaaaaaaaaaaaaaaaaaaaaaaaaaaaaaaaaaaaaaaaaaaa",
"aaaaaaaaaaaaaaaaaaaaaaaaaaaaaaaaaaaaaaaaaaaaaaaaaaaaaaaaaaaaaaaa",
"aaaaaaaaaaaaaaaaaaaaaaaaaaaaaaaaaaaaaaaaaaaaaaaaaaaaaaaaaaaaaaaa",
"aaaaaaaaaaaaaaaaaaaaaaaaaaaaaaaaaaaaaaaaaaaaaaaaaaaaaaaaaaaaaaaa",
"aaaaaaaaaaaaaaaaaaaaaaaaaaaaaaaaaaaaaaaaaaaaaaaaaaaaaaaaaaaaaaaa",
"aaaaaaaaaaaaaaaaaaaaaaaaaaaaaaaaaaaaaaaaaaaaaaaaaaaaaaaaaaaaaaaa",
"aaaaaaaaaaaaaaaaaaaaaaaaaaaaaaaaaaaaaaaaaaaaaaaaaaaaaaaaaaaaaaaa",
"aaaaaaaaaaaaaaaaaaaaaaaaaaaaaaaaaaaaaaaaaaaaaaaaaaaaaaaaaaaaaaaa",
"aaaaaaaaaaaaaaaaaaaaaaaaaaaaaaaaaaaaaaaaaaaaaaaaaaaaaaaaaaaaaaaa",
"aaaaaaaaaaaaaaaaaaaaaaaaaaaaa++OO.   aaaaaaaaaaaaaaaaaaaaaaaaaaa",
"aaaaaaaaaaaaaaaaaaaaaaaaaaaa+O$O...   aaaaaaaaaaaaaaaaaaaaaaaaaa",
"aaaaaaaaaaaaaaaaaaaaaaaaaaaaOO+O...   aaaaaaaaaaaaaaaaaaaaaaaaaa",
"aaaaaaaaaaaaaaaaaaaaaaaaaaaaOOOO...   aaaaaaaaaaaaaaaaaaaaaaaaaa",
"aaaaaaaaaaaaaaaaaaaaaaaaaaa.O$$#+O....Oaaaaaaaaaaaaaaaaaaaaaaaaa",
"aaaaaaaaaaaaaaaaaaaaaaaaaaaO+ 7p86p6 ..aaaaaaaaaaaaaaaaaaaaaaaaa",
"aaaaaaaaaaaaaaaaaaaaaaaaaaa+ 7idi0dt; .aaaaaaaaaaaaaaaaaaaaaaaaa",
"aaaaaaaaaaaaaaaaaaaaaaaaaaaO -ruyyue& .aaaaaaaaaaaaaaaaaaaaaaaaa",
"aaaaaaaaaaaaaaaaaaaaaaaaaaaaa&9r**r7&aaaaaaaaaaaaaaaaaaaaaaaaaaa",
"aaaaaaaaaaaaaaaaaaaaaaaaaaaaa 4est0& aaaaaaaaaaaaaaaaaaaaaaaaaaa",
"aaaaaaaaaaaaaaaaaaaaaaaaaaaa   -884   aaaaaaaaaaaaaaaaaaaaaaaaaa",
"aaaaaaaaaaaaaaaaaaaaaaaaaaO+ j  08  g   aaaaaaaaaaaaaaaaaaaaaaaa",
"aaaaaaaaaaaaaaaaaaaaaaaaaOO+. g    g .....aaaaaaaaaaaaaaaaaaaaaa",
"aaaaaaaaaaaaaaaaaaaaaaaaOOO+    .+  +O+O...aaaaaaaaaaaaaaaaaaaaa",
"aaaaaaaaaaaaaaaaaaaaaaaaOOO+.  ++.++++OOO..aaaaaaaaaaaaaaaaaaaaa",
"aaaaaaaaaaaaaaaaaaaaaaaOOOOO+   +.+++OOOO.3haaaaaaaaaaaaaaaaaaaa",
"aaaaaaaaaaaaaaaaaaaaaaaOO.. OO   .+OOO..123f aaaaaaaaaaaaaaaaaaa",
"aaaaaaaaaaaaaaaaaaaaaaOOO. ..O+   +OO.  1233haaaaaaaaaaaaaaaaaaa",
"aaaaaaaaaaaaaaaaaaaaaaOO.  ..O++  ,...  12233aaaaaaaaaaaaaaaaaaa",
"aaaaaaaaaaaaaaaaaaaaaaOO.   .+++.,<,  . .1OO.aaaaaaaaaaaaaaaaaaa",
"aaaaaaaaaaaaaaaaaaaaaO++O   .OO-=<@<  .OOOOO.aaaaaaaaaaaaaaaaaaa",
"aaaaaaaaaaaaaaaaaaaaaO+++.   --=&&>.OOOOOOO..aaaaaaaaaaaaaaaaaaa",
"aaaaaaaaaaaaaaaaaaaaaOO++O -=&rioXrOOOOOOOO.aaaaaaaaaaaaaaaaaaaa",
"aaaaaaaaaaaaaaaaaaaaa.O++9-=& qrirqO.O..O.aaaaaaaaaaaaaaaaaaaaaa",
"aaaaaaaaaaaaaaaaaaaaaa.O8s=&   qqq......aaaaaaaaaaaaaaaaaaaaaaaa",
"aaaaaaaaaaaaaaaaaaaaaaa-sdw5..O+.OOO   .aaaaaaaaaaaaaaaaaaaaaaaa",
"aaaaaaaaaaaaaaaaaaaaaa--i0  ..O+.+++. ..aaaaaaaaaaaaaaaaaaaaaaaa",
"aaaaaaaaaaaaaaaaaaaaa--=&.  ...O.+++O...aaaaaaaaaaaaaaaaaaaaaaaa",
"aaaaaaaaaaaaaaaaaaaaa==&aa   ........  .aaaaaaaaaaaaaaaaaaaaaaaa",
"aaaaaaaaaaaaaaaaaaaaa&&aaa..O+++OOO+O...aaaaaaaaaaaaaaaaaaaaaaaa",
"aaaaaaaaaaaaaaaaaaaaaaaaa..O++++OO++O. .Oaaaaaaaaaaaaaaaaaaaaaaa",
"aaaaaaaaaaaaaaaaaaaaaaaaa..O+OOOOO++O. ..aaaaaaaaaaaaaaaaaaaaaaa",
"aaaaaaaaaaaaaaaaaaaaaaaaa.O++OOOaOO++. ..aaaaaaaaaaaaaaaaaaaaaaa",
"aaaaaaaaaaaaaaaaaaaaaaaa..O++O..aOO++O. .Oaaaaaaaaaaaaaaaaaaaaaa",
"aaaaaaaaaaaaaaaaaaaaaaaa.O++O. .aOO++O.  .aaaaaaaaaaaaaaaaaaaaaa",
"aaaaaaaaaaaaaaaaaaaaaaaaOO++O  aaaO++O.  .aaaaaaaaaaaaaaaaaaaaaa",
"aaaaaaaaaaaaaaaaaaaaaaaOOOOO.  aaaOOOO.   aaaaaaaaaaaaaaaaaaaaaa",
"aaaaaaaaaaaaaaaaaaaaaaa.OOO.  .aaa.OO...  Oaaaaaaaaaaaaaaaaaaaaa",
"aaaaaaaaaaaaaaaaaaaaaa..OOOO..aaaaaOOOOO. .aaaaaaaaaaaaaaaaaaaaa",
"aaaaaaaaaaaaaaaaaaaaaa.++++O..aaaaaOO+++O..aaaaaaaaaaaaaaaaaaaaa",
"aaaaaaaaaaaaaaaaaaaaaa   ..OO aaaaaOOO..  .aaaaaaaaaaaaaaaaaaaaa",
"aaaaaaaaaaaaaaaaaaaaaaaO$+   aaaaaaa ...   aaaaaaaaaaaaaaaaaaaaa",
"aaaaaaaaaaaaaaaaaaaaaaa@%@.. aaaaaaa .$@.  aaaaaaaaaaaaaaaaaaaaa",
"aaaaaaaaaaaaaaaaaaaaaa.$$$.. aaaaaaaa.$$.  aaaaaaaaaaaaaaaaaaaaa",
"aaaaaaaaaaaaaaaaaaaaaa.$$.. aaaaaaaaa O+.  aaaaaaaaaaaaaaaaaaaaa",
"aaaaaaaaaaaaaaaaaaaaaa.$@.  aaaaaaaaa .+.   aaaaaaaaaaaaaaaaaaaa",
"aaaaaaaaaaaaaaaaaaaaaaO$+   aaaaaaaaaa O+.  aaaaaaaaaaaaaaaaaaaa",
"aaaaaaaaaaaaaaaaaaaaaa.O.  aaaaaaaaaaa .O.  aaaaaaaaaaaaaaaaaaaa",
"aaaaaaaaaaaaaaaaaaaaa ...  aaaaaaaaaaa  ...  aaaaaaaaaaaaaaaaaaa",
"aaaaaaaaaaaaaaaaaaaa +%%@. aaaaaaaaaaaa.O$$+  aaaaaaaaaaaaaaaaaa",
"aaaaaaaaaaaaaaaaaaaa.$:%$O aaaaaaaaaaaa.O$$+  aaaaaaaaaaaaaaaaaa"
};
