/* XPM */
static char *_3a8b8b95e0149eb86663d6e1ab20288LHI806XfGsD7OBol[] = {
/* columns rows colors chars-per-pixel */
"64 64 11 1 ",
"  c #081420",
". c #0C1C30",
"X c #142840",
"o c #183450",
"O c #204060",
"+ c #244870",
"@ c #2C5480",
"# c #346090",
"$ c #3C6CA0",
"% c #4C78A8",
"& c #5884B0",
/* pixels */
". @@@@@@@#& $$$&. @@@@@@@#& $$$&. @@@@@@@#& $$$&. @@@@@@@#& $$$&",
". OOOOOOO#& OO#&. OOOOOOO#& OO#&. OOOOOOO#& OO#&. OOOOOOO#& OO#&",
". OOOOOOO#& OO#&. OOOOOOO#& OO#&. OOOOOOO#& OO#&. OOOOOOO#& OO#&",
". OOOOOOO#& OO#&. OOOOOOO#& OO#&. OOOOOOO#& OO#&. OOOOOOO#& OO#&",
". OOOOOOO#& o%#&. OOOOOOO#& o%#&. OOOOOOO#& o%#&. OOOOOOO#& o%#&",
". OOOOOOO#& .o#&. OOOOOOO#& .o#&. OOOOOOO#& .o#&. OOOOOOO#& .o#&",
". ........$ OO#&. ........$ OO#&. ........$ OO#&. ........$ OO#&",
".O++oOOoOO. OO#&#oOOOOOXoO. OO#&#+++++O+OO. OO#&#+@@@@@@@O. OO#&",
".O++oOOoOO. OO#&#oOOOOOXOO. OO#&#+++++O+OO. OO#&#+@@@@@@@O. OO#&",
".O++oOOoOO. OO#&#oOOOOOXOO. OO#&#+++++o+oO. OO#&#OOOOOOOOO. OO#&",
".O++oOOoOO. o%#&#XOXoOOXOO. o%#&#+++++o+oO. o%#&#OOOOOooOO. o%#&",
".O++oOOooo. .o#&#XOXoOOXOo. .o#&#+++++o+oo. .o#&#@@OO+oo@o. .o#&",
".O++oOOooo. OO#&#XOXoOOXOo. OO#&#ooooooooo. OO#&#@@OO+oo@o. OO#&",
".O++oOOooo. OO#&#XOXoOOXOo. OO#&#ooooooooo. OO#&#@@OO+oo@o. OO#&",
".O++oO++oo. OO#&#XOXoOOXOo. OO#&#ooooooooo. OO#&#@@OO+oo@o. OO#&",
".O++oO++oo. OO#&#XOXoOOXOo. OO#&#ooooooooo. OO#&#@@OO+ooOo. OO#&",
"$$$$$$$$$$O o%#&$$$$$$$$$$O o%#&$$$$$$$$$$O o%#&$$$$$$$$$$O o%#&",
"##########o .o#&##########o .o#&##########o .o#&##########o .o#&",
"@@@@@@@@@@X OO#&@@@@@@@@@@X OO#&@@@@@@@@@@X OO#&@@@@@@@@@@X OO#&",
"++++++++++. OO#&++++++++++. OO#&++++++++++. OO#&++++++++++. OO#&",
"++++++++++. OO#&++++++++++. OO#&++++++++++. OO#&++++++++++. OO#&",
"@@@@@@@@@@X OO#&@@@@@@@@@@X OO#&@@@@@@@@@@X OO#&@@@@@@@@@@X OO#&",
"++++++++++X o%#&++++++++++X o%#&++++++++++X o%#&++++++++++X o%#&",
"OOOOOOOOOO. .o#&OOOOOOOOOO. .o#&OOOOOOOOOO. .o#&OOOOOOOOOO. .o#&",
"oooooooooo. OO#&oooooooooo. OO#&oooooooooo. OO#&oooooooooo. OO#&",
"XXXXXXXXXX. OO#&XXXXXXXXXX. OO#&XXXXXXXXXX. OO#&XXXXXXXXXX. OO#&",
"........... OO#&........... OO#&........... OO#&........... OO#&",
".OoooOoO+o. OO#&#XOXOOOOOo. OO#&#OOo++oooo. OO#&#+@@O@oo@o. OO#&",
".Oo+oOoO+o. o%#&#XOXOOOOOo. o%#&#OOo++oooo. o%#&#+@++@oo@o. o%#&",
".Oo+oOoO+o. .o#&#XOXOOOOOo. .o#&#OOo++Oooo. .o#&#+@++@oo@o. .o#&",
".Oo+oOoO+o. OO#&#XOXoOOooo. OO#&#OOo++Oooo. OO#&#+@++@oo@o. OO#&",
".Oo+oOoO+o. OO#&#XOXoOOooo. OO#&#OOo++Oooo. OO#&#+@+++oo+o. OO#&",
".Oo+oOoO+o. OO#&#XOXoOOooo. OO#&#OOo++Oooo. OO#&#+@+++oo+o. OO#&",
".Oo+oOoO+o. OO#&#XOXoOOooo. OO#&#OOo++Oooo. OO#&#Oo++OooOo. OO#&",
".Oo+oOoO+o. o%#&#OOOOOOooo. o%#&#OOo++Oooo. o%#&#Oo++OooOo. o%#&",
".Oo+oOoO+o. .o#&#OOOOOOooo. .o#&#OOo++Oooo. .o#&#Oo++OooOo. .o#&",
".OO+oOoO+o. OO#&#XXXoOOooo. OO#&#OOo++Oooo. OO#&#Oo++OooOo. OO#&",
".OO+oOoO+o. OO#&#XXXoOOooo. OO#&#OOo++Oooo. OO#&#Oo++OooOo. OO#&",
".OO+oOoO+o. OO#&#XXXoOOooo. OO#&#OOo++Oooo. OO#&#Oo++OooOo. OO#&",
".OO+oOoO+o. OO#&#XXXoOOoXo. OO#&#OOo++Oooo. OO#&#Oo++OooOo. OO#&",
".OO+oOoO+O. o%#&#ooooOOoXO. o%#&#OOo++OooO. o%#&#Oo++OooOO. o%#&",
".OO+oOoO+O. .o#&#ooooOOoXO. .o#&#OOo++OooO. .o#&#Oo++OooOO. .o#&",
".OO+oOoO+O. OO#&#ooooOOoXO. OO#&#OOo++OooO. OO#&#Oo++OooOO. OO#&",
".OO+oooo+O. OO#&#ooooOOoXO. OO#&#OOo++OooO. OO#&#Oo++OOOOO. OO#&",
".OO+oooo+O. OO#&#ooooOOoXO. OO#&#OOo++OooO. OO#&#Oo++OOOOO. OO#&",
".OO+oooo+O. OO#&#ooXXOOXXO. OO#&#OOo++OooO. OO#&#Oo++OOOOO. OO#&",
".OO+oooo+O. o%#&#ooXXOOXXO. o%#&#OOo++OooO. o%#&#OO++OOOOO. o%#&",
".OO+oooo+O. .o#&#ooXXOOXXO. .o#&#OOo++OooO. .o#&#OO++OOOOO. .o#&",
".OO+oooo++. OO#&#ooXXOOXX+. OO#&#OooooOoo+. OO#&#OO++OOOO+. OO#&",
".OO+oooo++. OO#&#ooXXOOXX+. OO#&#OooooOoo+. OO#&#@@@OO@O@+. OO#&",
"################################################################",
"$$$$$$$$$$$$$$$$$$$$$$$$$$$$$$$$$$$$$$$$$$$$$$$$$$$$$$$$$$$$$$$$",
"###X%&%####X%&%####X%&%####X%&%####X%&%####X%&%####X%&%####X%&%#",
"###X+%%####X+%%####X+%%####X+%%####X+%%####X+%%####X+%%####X+%%#",
"###XXX%####XXX%####XXX%####XXX%####XXX%####XXX%####XXX%####XXX%#",
"OOOOOOOOOOOOOOOOOOOOOOOOOOOOOOOOOOOOOOOOOOOOOOOOOOOOOOOOOOOOOOOO",
"oooooooooooooooooooooooooooooooooooooooooooooooooooooooooooooooo",
"XXXXXXXXXXXXXXXXXXXXXXXXXXXXXXXXXXXXXXXXXXXXXXXXXXXXXXXXXXXXXXXX",
".OOooOOOo+. o%#&#ooXXOXXX+. o%#&#Oooooooo+. o%#&#+++OOOOO+. o%#&",
".OOooOOOo+. .o#&#ooXXXXXX+. .o#&#OOOOOooo+. .o#&#+++OOOOO+. .o#&",
".OOooOOOo+. OO#&#ooXXXXXX+. OO#&#OOOOOooo+. OO#&#+++OOOOO+. OO#&",
".OOooOOOo+. OO#&#ooXXXXXX+. OO#&#OOOOOooo+. OO#&#+++OO++++. OO#&",
".OOooOOOoO. OO#&#ooXXXXXXO. OO#&#OOOOOoooO. OO#&#+++OO+++O. OO#&",
"........... @@@&........... @@@&........... @@@&........... @@@$"
};
